<?xml version="1.0" encoding="UTF-8" standalone="no"?>
<svg
   xmlns:dc="http://purl.org/dc/elements/1.1/"
   xmlns:cc="http://creativecommons.org/ns#"
   xmlns:rdf="http://www.w3.org/1999/02/22-rdf-syntax-ns#"
   xmlns:svg="http://www.w3.org/2000/svg"
   xmlns="http://www.w3.org/2000/svg"
   xmlns:sodipodi="http://sodipodi.sourceforge.net/DTD/sodipodi-0.dtd"
   xmlns:inkscape="http://www.inkscape.org/namespaces/inkscape"
   width="200"
   height="63"
   version="1.1"
   id="svg2"
   inkscape:version="0.91 r13725"
   sodipodi:docname="doku.svg"
   inkscape:export-filename="/home/dindin/xentaos/kesenian/www/xentaos.org/p/donasi/doku.png"
   inkscape:export-xdpi="90"
   inkscape:export-ydpi="90">
  <metadata
     id="metadata32">
    <rdf:RDF>
      <cc:Work
         rdf:about="">
        <dc:format>image/svg+xml</dc:format>
        <dc:type
           rdf:resource="http://purl.org/dc/dcmitype/StillImage" />
        <dc:title></dc:title>
        <dc:creator>
          <cc:Agent>
            <dc:title>Dindin Hernawan</dc:title>
          </cc:Agent>
        </dc:creator>
        <dc:publisher>
          <cc:Agent>
            <dc:title>Xenta OS</dc:title>
          </cc:Agent>
        </dc:publisher>
      </cc:Work>
    </rdf:RDF>
  </metadata>
  <defs
     id="defs30" />
  <sodipodi:namedview
     pagecolor="#ffffff"
     bordercolor="#666666"
     borderopacity="1"
     objecttolerance="10"
     gridtolerance="10"
     guidetolerance="10"
     inkscape:pageopacity="0"
     inkscape:pageshadow="2"
     inkscape:window-width="1360"
     inkscape:window-height="710"
     id="namedview28"
     showgrid="false"
     inkscape:zoom="3.6471823"
     inkscape:cx="95.345539"
     inkscape:cy="28.650339"
     inkscape:window-x="0"
     inkscape:window-y="0"
     inkscape:window-maximized="1"
     inkscape:current-layer="svg2" />
  <g
     id="g3845"
     transform="matrix(0.52859203,0,0,0.54826533,143.11962,97.751066)">
    <rect
       ry="13.291481"
       y="-168.90372"
       x="-267.42957"
       height="101.01527"
       width="102.74692"
       id="rect3819"
       style="display:block;opacity:1;fill:#ec242a;fill-opacity:1;stroke:none;stroke-width:7.5;stroke-linecap:butt;stroke-linejoin:round;stroke-miterlimit:4;stroke-dasharray:none;stroke-dashoffset:0;stroke-opacity:1" />
    <path
       id="path1"
       d="m -155.36742,-174.22516 c -0.007,0.384 0.046,0.735 0.119,0.78 0.072,0.045 0.104,-0.194 0.071,-0.532 -0.091,-0.922 -0.175,-1.032 -0.19,-0.248 m 1.673,1.01 c -0.015,0.289 0.067,0.371 0.355,0.356 0.266,-0.014 0.293,-0.041 0.094,-0.094 -0.155,-0.041 -0.315,-0.201 -0.356,-0.356 -0.052,-0.199 -0.08,-0.172 -0.093,0.094 m -0.099,112.999999 c -0.109,0.437 -0.123,0.443 -0.309,0.125 -0.41,-0.702 -1.018,-0.434 -1.039,0.458 -0.013,0.547 -0.002,0.549 0.587,0.13 0.254,-0.18 0.504,-0.286 0.555,-0.234 0.052,0.051 0.214,-0.138 0.361,-0.422 0.146,-0.283 0.197,-0.515 0.113,-0.515 -0.084,0 -0.204,0.206 -0.268,0.458 m -0.661,0.472 c -0.486,0.355 -0.689,0.284 -0.236,-0.083 0.216,-0.175 0.43,-0.281 0.476,-0.236 0.046,0.045 -0.062,0.189 -0.24,0.319 m -0.218,0.599 c -0.513,0.317 -0.592,0.64 -0.157,0.635 0.13,-0.002 0.119,-0.053 -0.032,-0.149 -0.182,-0.115 -0.159,-0.168 0.11,-0.254 0.187,-0.059 0.432,-0.217 0.543,-0.351 0.254,-0.307 0.204,-0.294 -0.464,0.119 m -2.208,1.554 c 0,0.511 0.051,0.583 0.416,0.583 0.365,0 0.417,-0.072 0.417,-0.583 0,-0.511 -0.052,-0.583 -0.417,-0.583 -0.365,0 -0.416,0.072 -0.416,0.583 m 1.042,0 c 0.002,0.367 0.036,0.497 0.076,0.29 0.039,-0.208 0.038,-0.508 -0.004,-0.667 -0.042,-0.159 -0.074,0.01 -0.072,0.377 m 0.333,0 c 0.002,0.367 0.036,0.497 0.076,0.29 0.04,-0.208 0.038,-0.508 -0.003,-0.667 -0.042,-0.159 -0.075,0.01 -0.073,0.377"
       inkscape:connector-curvature="0"
       style="display:block;fill:#550000;fill-rule:evenodd;stroke:none" />
    <text
       transform="scale(1.0033662,0.99664509)"
       sodipodi:linespacing="125%"
       id="text3803"
       y="-121.53094"
       x="-214.92781"
       style="font-style:normal;font-weight:normal;font-size:309.76443481px;line-height:125%;font-family:sans-serif;letter-spacing:0px;word-spacing:0px;display:block;fill:#f9f9f9;fill-opacity:0;stroke:#ffffff;stroke-width:8.40039253;stroke-linecap:butt;stroke-linejoin:miter;stroke-miterlimit:4;stroke-dasharray:none;stroke-opacity:1"
       xml:space="preserve"><tspan
         style="font-style:normal;font-variant:normal;font-weight:normal;font-stretch:normal;font-size:70.00327301px;font-family:Sawasdee;-inkscape-font-specification:Sawasdee;fill:#f9f9f9;fill-opacity:0;stroke:#ffffff;stroke-width:8.40039253;stroke-miterlimit:4;stroke-dasharray:none;stroke-opacity:1"
         y="-121.53094"
         x="-214.92781"
         id="tspan3805"
         sodipodi:role="line">o</tspan></text>
    <text
       xml:space="preserve"
       style="font-style:normal;font-weight:normal;font-size:250.70262146px;line-height:125%;font-family:sans-serif;letter-spacing:0px;word-spacing:0px;display:block;fill:#f9f9f9;fill-opacity:0;stroke:#ffffff;stroke-width:6.79871559;stroke-linecap:butt;stroke-linejoin:miter;stroke-miterlimit:4;stroke-dasharray:none;stroke-opacity:1"
       x="-193.94128"
       y="-84.969933"
       id="text3807"
       sodipodi:linespacing="125%"
       transform="scale(1.1135348,0.89804108)"><tspan
         sodipodi:role="line"
         id="tspan3809"
         x="-193.94128"
         y="-84.969933"
         style="font-style:normal;font-variant:normal;font-weight:normal;font-stretch:normal;font-size:56.6559639px;font-family:Sawasdee;-inkscape-font-specification:Sawasdee;fill:#f9f9f9;fill-opacity:0;stroke:#ffffff;stroke-width:6.79871559;stroke-miterlimit:4;stroke-dasharray:none;stroke-opacity:1">U</tspan></text>
    <text
       transform="matrix(-0.02189911,-1.1133195,0.89786736,-0.01766115,0,0)"
       sodipodi:linespacing="125%"
       id="text3811"
       y="-240.27681"
       x="108.52104"
       style="font-style:normal;font-weight:normal;font-size:250.70262146px;line-height:125%;font-family:sans-serif;letter-spacing:0px;word-spacing:0px;display:block;fill:#f9f9f9;fill-opacity:0;stroke:#ffffff;stroke-width:6.79871559;stroke-linecap:butt;stroke-linejoin:miter;stroke-miterlimit:4;stroke-dasharray:none;stroke-opacity:1"
       xml:space="preserve"><tspan
         style="font-style:normal;font-variant:normal;font-weight:normal;font-stretch:normal;font-size:56.6559639px;font-family:Sawasdee;-inkscape-font-specification:Sawasdee;fill:#f9f9f9;fill-opacity:0;stroke:#ffffff;stroke-width:6.79871559;stroke-miterlimit:4;stroke-dasharray:none;stroke-opacity:1"
         y="-240.27681"
         x="108.52104"
         id="tspan3813"
         sodipodi:role="line">U</tspan></text>
    <text
       transform="scale(1.0802725,0.92569236)"
       sodipodi:linespacing="125%"
       id="text3815"
       y="-84.813049"
       x="-240.58249"
       style="font-style:normal;font-weight:normal;font-size:206.67556763px;line-height:125%;font-family:sans-serif;letter-spacing:0px;word-spacing:0px;display:block;fill:#f9f9f9;fill-opacity:0;stroke:#ffffff;stroke-width:7.00595093;stroke-linecap:butt;stroke-linejoin:miter;stroke-miterlimit:4;stroke-dasharray:none;stroke-opacity:1"
       xml:space="preserve"><tspan
         style="font-size:51.37697983px;fill:#f9f9f9;fill-opacity:0;stroke:#ffffff;stroke-width:7.00595093;stroke-miterlimit:4;stroke-dasharray:none;stroke-opacity:1"
         y="-84.813049"
         x="-240.58249"
         id="tspan3817"
         sodipodi:role="line">K</tspan></text>
    <text
       transform="scale(1.0146504,0.98556114)"
       sodipodi:linespacing="125%"
       id="text3821"
       y="-88.125801"
       x="-145.28102"
       style="font-style:normal;font-weight:normal;font-size:318.86450195px;line-height:125%;font-family:sans-serif;letter-spacing:0px;word-spacing:0px;display:block;fill:#ececec;fill-opacity:1;stroke:none;stroke-width:1px;stroke-linecap:butt;stroke-linejoin:miter;stroke-opacity:1"
       xml:space="preserve"><tspan
         style="font-size:79.2657547px;fill:#ececec"
         y="-88.125801"
         x="-145.28102"
         id="tspan3823"
         sodipodi:role="line">Wallet</tspan></text>
  </g>
</svg>
