<?xml version="1.0" encoding="UTF-8" standalone="no"?>
<!-- Created with Inkscape (http://www.inkscape.org/) -->

<svg
   xmlns:dc="http://purl.org/dc/elements/1.1/"
   xmlns:cc="http://creativecommons.org/ns#"
   xmlns:rdf="http://www.w3.org/1999/02/22-rdf-syntax-ns#"
   xmlns:svg="http://www.w3.org/2000/svg"
   xmlns="http://www.w3.org/2000/svg"
   xmlns:sodipodi="http://sodipodi.sourceforge.net/DTD/sodipodi-0.dtd"
   xmlns:inkscape="http://www.inkscape.org/namespaces/inkscape"
   id="svg3698"
   sodipodi:docname="partner.svg"
   viewBox="0 0 199.99999 125"
   version="1.1"
   inkscape:version="0.91 r13725"
   width="200"
   height="125"
   inkscape:export-filename="/home/dindin/xentaos/kesenian/www/xentaos.org/body_barner_partner.png"
   inkscape:export-xdpi="142.56"
   inkscape:export-ydpi="142.56">
  <defs
     id="defs13" />
  <sodipodi:namedview
     id="base"
     bordercolor="#666666"
     inkscape:pageshadow="2"
     inkscape:window-y="0"
     pagecolor="#ffffff"
     inkscape:window-height="709"
     inkscape:window-maximized="0"
     inkscape:zoom="1.4142136"
     inkscape:window-x="0"
     showgrid="false"
     borderopacity="1.0"
     inkscape:current-layer="layer1"
     inkscape:cx="11.976909"
     inkscape:cy="62.371435"
     inkscape:window-width="1358"
     inkscape:pageopacity="0.0"
     inkscape:document-units="px"
     showguides="true"
     inkscape:guide-bbox="true">
    <sodipodi:guide
       position="0,125.1875"
       orientation="1,0"
       id="guide3813" />
    <sodipodi:guide
       position="200.81832,0"
       orientation="0,1"
       id="guide3815" />
    <sodipodi:guide
       position="200.11121,130.10765"
       orientation="1,0"
       id="guide3817" />
    <sodipodi:guide
       position="-174.65536,125.1579"
       orientation="0,1"
       id="guide3819" />
  </sodipodi:namedview>
  <g
     id="layer1"
     inkscape:label="Capa 1"
     inkscape:groupmode="layer"
     transform="translate(-86.03,-208.609)">
    <rect
       style="opacity:1;fill:#333333;fill-opacity:1;stroke:none;stroke-width:7;stroke-linecap:butt;stroke-linejoin:round;stroke-miterlimit:4;stroke-dasharray:none;stroke-dashoffset:0;stroke-opacity:1"
       id="rect3811"
       width="208.33496"
       height="133.336"
       x="84.695038"
       y="204.77298" />
    <g
       id="layer1-6"
       inkscape:label="Layer 1"
       transform="matrix(0.24480823,0,0,0.13973348,1014.459,139.93721)">
      <rect
         y="1450.1898"
         x="-1314.6689"
         height="388.57144"
         width="562.85712"
         id="rect3795"
         style="opacity:1;fill:#4400aa;fill-opacity:1;stroke:none;stroke-width:7;stroke-linecap:butt;stroke-linejoin:round;stroke-miterlimit:4;stroke-dasharray:none;stroke-dashoffset:0;stroke-opacity:1" />
      <rect
         y="1499.9099"
         x="-2263.6116"
         height="322.85715"
         width="482.85715"
         id="rect3797"
         style="opacity:1;fill:#00aa44;fill-opacity:1;stroke:none;stroke-width:7;stroke-linecap:butt;stroke-linejoin:round;stroke-miterlimit:4;stroke-dasharray:none;stroke-dashoffset:0;stroke-opacity:1" />
      <rect
         y="1417.74"
         x="-621.80713"
         height="365.71429"
         width="500"
         id="rect3803"
         style="opacity:1;fill:#ffd42a;fill-opacity:1;stroke:none;stroke-width:7;stroke-linecap:butt;stroke-linejoin:round;stroke-miterlimit:4;stroke-dasharray:none;stroke-dashoffset:0;stroke-opacity:1" />
      <rect
         y="766.4245"
         x="-459.80292"
         height="328.57144"
         width="342.85715"
         id="rect3826"
         style="opacity:1;fill:#d40055;fill-opacity:1;stroke:none;stroke-width:7;stroke-linecap:butt;stroke-linejoin:round;stroke-miterlimit:4;stroke-dasharray:none;stroke-dashoffset:0;stroke-opacity:1" />
      <rect
         y="475.53531"
         x="-1437.7207"
         height="634.28571"
         width="497.14285"
         id="rect3828"
         style="opacity:1;fill:#88aa00;fill-opacity:1;stroke:none;stroke-width:7;stroke-linecap:butt;stroke-linejoin:round;stroke-miterlimit:4;stroke-dasharray:none;stroke-dashoffset:0;stroke-opacity:1" />
      <rect
         y="241.24966"
         x="-1260.5779"
         height="548.57141"
         width="451.42856"
         id="rect3830"
         style="opacity:1;fill:#d4ff2a;fill-opacity:1;stroke:none;stroke-width:7;stroke-linecap:butt;stroke-linejoin:round;stroke-miterlimit:4;stroke-dasharray:none;stroke-dashoffset:0;stroke-opacity:1" />
      <rect
         y="1250.1898"
         x="-1623.2404"
         height="331.42856"
         width="622.85712"
         id="rect3793"
         style="opacity:1;fill:#7f2aff;fill-opacity:1;stroke:none;stroke-width:7;stroke-linecap:butt;stroke-linejoin:round;stroke-miterlimit:4;stroke-dasharray:none;stroke-dashoffset:0;stroke-opacity:1" />
      <rect
         y="1312.0258"
         x="-430.37842"
         height="360"
         width="385.71429"
         id="rect3801"
         style="opacity:1;fill:#ffe680;fill-opacity:1;stroke:none;stroke-width:7;stroke-linecap:butt;stroke-linejoin:round;stroke-miterlimit:4;stroke-dasharray:none;stroke-dashoffset:0;stroke-opacity:1" />
      <rect
         y="617.85309"
         x="-619.80292"
         height="377.14285"
         width="331.42856"
         id="rect3824"
         style="opacity:1;fill:#ff2a7f;fill-opacity:1;stroke:none;stroke-width:7;stroke-linecap:butt;stroke-linejoin:round;stroke-miterlimit:4;stroke-dasharray:none;stroke-dashoffset:0;stroke-opacity:1" />
      <rect
         y="1262.7671"
         x="-2435.0403"
         height="451.42856"
         width="342.85715"
         id="rect3799"
         style="opacity:1;fill:#00ff66;fill-opacity:1;stroke:none;stroke-width:7;stroke-linecap:butt;stroke-linejoin:round;stroke-miterlimit:4;stroke-dasharray:none;stroke-dashoffset:0;stroke-opacity:1" />
      <rect
         y="595.77325"
         x="-2299.1072"
         height="472.7514"
         width="505.07626"
         id="rect3834"
         style="opacity:1;fill:#007db6;fill-opacity:1;stroke:none;stroke-width:7;stroke-linecap:butt;stroke-linejoin:round;stroke-miterlimit:4;stroke-dasharray:none;stroke-dashoffset:0;stroke-opacity:1" />
      <rect
         y="316.97116"
         x="-2436.488"
         height="472.7514"
         width="436.38589"
         id="rect3832"
         style="opacity:1;fill:#0088c8;fill-opacity:1;stroke:none;stroke-width:7;stroke-linecap:butt;stroke-linejoin:round;stroke-miterlimit:4;stroke-dasharray:none;stroke-dashoffset:0;stroke-opacity:1" />
    </g>
    <g
       transform="matrix(0.28160824,0,0,0.29627018,79.77531,125.90139)"
       id="layer1-67"
       inkscape:label="Layer 1"
       style="fill:#7f2aff;fill-opacity:1">
      <g
         transform="translate(-28.284271,-391.93919)"
         id="g7535"
         style="fill:#7f2aff;fill-opacity:1">
        <path
           style="fill:#7f2aff;fill-opacity:1"
           d="m 458.75076,1012.1367 c 5.43876,-2.5808 13.3921,-15.4573 13.3921,-21.6818 0,-4.4072 -3.99627,-8.9704 -11.14644,-12.7277 -9.30153,-4.8878 -11.46906,-7.3301 -7.5964,-8.5592 2.39972,-0.7617 9.37466,2.4195 22.31349,10.177 19.23583,11.5327 21.32447,12.0476 27.22908,6.7132 4.26636,-3.8544 9.59129,-14.1349 10.22264,-19.7362 0.4358,-3.8665 0.33056,-4.0438 -4.58504,-7.7219 -2.76709,-2.0705 -11.96697,-7.7443 -20.44417,-12.6084 -8.47719,-4.8642 -15.83555,-9.5137 -16.35189,-10.3322 -1.38447,-2.1949 0.92163,-4.458 4.54263,-4.458 2.97132,0 4.24035,0.6862 26.59902,14.3831 11.88798,7.2825 21.1836,11.8669 24.0621,11.8669 5.75458,0 16.40498,-15.7118 16.40498,-24.2012 0,-6.9623 -4.99951,-10.7999 -34.17902,-26.23526 -7.71252,-4.07977 -14.43806,-8.07615 -14.94563,-8.88082 -1.43494,-2.27486 0.984,-4.43272 4.96902,-4.43272 4.36383,0 14.4086,4.79417 25.1069,11.98304 17.74861,11.9264 22.53712,13.50729 28.93555,9.55284 5.60525,-3.46423 12.32749,-16.43403 11.19356,-21.59672 -0.61789,-2.81325 -5.20648,-7.46312 -9.36163,-9.48666 -1.54688,-0.75333 -15.04688,-8.56862 -30,-17.36732 -37.16083,-21.86614 -68.42018,-39.65394 -79.87018,-45.44928 l -9.55768,-4.83755 -3.85914,2.67438 c -5.9827,4.14601 -8.09019,7.20362 -8.82366,12.80163 -1.16375,8.88186 -5.2501,28.7579 -7.63822,37.15237 -2.64769,9.30689 -5.24062,12.33295 -12.24904,14.29519 -10.72349,3.00239 -37.03373,-3.6643 -45.48952,-11.52648 -7.21589,-6.70933 -7.7089,-15.30064 -2.24563,-39.13294 5.2147,-22.74798 10.45987,-41.2431 12.47565,-43.99067 0.97472,-1.32857 7.09457,-6.01158 13.59967,-10.40669 6.50511,-4.39511 12.10619,-8.26984 12.44685,-8.6105 1.48651,-1.48651 -11.92852,-6.88335 -16.08488,-6.47091 -0.57519,0.0571 -9.6455,5.72267 -20.15625,12.59021 -24.38676,15.93388 -40.10772,25.54796 -47.28228,28.91525 l -5.67181,2.662 -13.07819,-3.22466 c -10.88254,-2.68328 -56.52363,-15.55585 -72.87045,-20.55231 l -4.47977,-1.36925 -2.20155,4.36939 c -8.78404,17.43357 -17.90771,51.75911 -20.22411,76.08814 -1.36403,14.32632 -1.72038,55.84586 -0.48981,57.06984 0.75855,0.75446 31.66763,9.71716 74.72807,21.66886 l 6.29057,1.746 3.29762,-4.59 c 1.81368,-2.5245 4.98735,-5.7083 7.05258,-7.075 3.24869,-2.1499 4.48401,-2.4289 9.16183,-2.0698 6.28816,0.4827 13.27193,3.5747 21.31175,9.4355 l 5.59242,4.0767 5.43681,-5.8119 c 7.614,-8.1394 10.47657,-9.347 18.87093,-7.9607 7.02174,1.1596 13.91808,3.7959 16.83855,6.4369 0.97605,0.8827 2.62535,3.2923 3.66512,5.3548 1.03976,2.0625 2.02214,3.8984 2.18307,4.0797 0.16092,0.1814 3.32981,-1.1897 7.04196,-3.0468 5.5445,-2.7738 7.7729,-3.3765 12.48281,-3.3759 10.43325,0 22.44987,7.5637 27.11287,17.0628 1.34126,2.7322 2.63204,5.6432 2.86842,6.4687 0.30103,1.0512 1.98556,1.6614 5.62297,2.0368 10.20899,1.0537 21.97463,9.4796 26.47832,18.9622 3.36935,7.0944 2.70829,13.6359 -2.09293,20.7109 -2.82397,4.1613 -2.37108,5.6125 2.53272,8.1158 4.01824,2.0512 6.71274,2.0703 10.91269,0.077 z"
           id="path7476"
           inkscape:connector-curvature="0"
           sodipodi:nodetypes="csssssssssssssssssssssscssssssssscsscsscsssscsssscsssscscsssssscc" />
        <path
           style="fill:#7f2aff;fill-opacity:1"
           d="m 414.42296,1041.2875 c 6.82418,-6.8242 24.9074,-43.23995 24.9074,-50.15821 0,-3.93574 -2.10814,-7.61628 -6.53081,-11.40192 -5.54162,-4.74342 -14.33309,-6.84419 -18.7499,-4.48039 -0.94597,0.50627 -8.09011,11.83254 -15.87587,25.16952 -12.22717,20.945 -14.15592,24.792 -14.15592,28.2346 0,5.3846 3.35206,8.4126 12.83645,11.5953 8.42985,2.8289 15.36956,3.2402 17.56865,1.0411 z m -38.37385,-25.0053 c 9.13778,-12.1073 30.92168,-47.8979 30.82616,-50.64685 -0.11389,-3.27711 -5.3014,-10.96221 -9.20522,-13.63715 -5.29227,-3.62632 -18.64352,-4.95695 -22.61334,-2.25372 -0.54581,0.37167 -7.19034,12.22957 -14.76563,26.35088 -16.029,29.88014 -16.2382,30.65374 -9.78885,36.19724 4.11502,3.5371 18.2639,10.9821 19.92188,10.4828 0.51562,-0.1553 3.04687,-3.0772 5.625,-6.4932 z m -38.123,-17.66741 c 3.75813,-1.31009 9.08724,-9.23761 18.45359,-27.45137 4.41608,-8.58746 7.01316,-14.74673 7.01316,-16.63249 0,-6.20944 -12.94592,-14.89193 -22.20444,-14.89193 l -4.9613,0 -13.24049,19.82787 c -12.62947,18.91284 -13.2172,20.00152 -12.73579,23.59071 0.27759,2.06956 1.30682,4.85405 2.2872,6.18775 2.26474,3.08097 10.5603,7.61557 16.63607,9.09377 6.05996,1.47435 5.37538,1.45279 8.752,0.27569 z m -34.38315,-23.58517 c 4.36412,-4.46079 10.89032,-14.07292 11.67349,-17.19331 0.66079,-2.63281 -2.34586,-8.45143 -6.35081,-12.29042 -4.19911,-4.02509 -9.04608,-5.90689 -15.21449,-5.90689 -6.25755,0 -8.92451,1.96783 -15.65417,11.55052 -5.20509,7.41178 -5.82943,11.08931 -2.73321,16.09911 3.42382,5.53985 14.04864,11.62853 20.39576,11.68801 3.47499,0.0325 4.48464,-0.47293 7.88343,-3.94702 z m 268.082,-38.09701 c 28.32323,-7.38375 51.62058,-13.95824 52.46031,-14.80423 2.80629,-2.82726 4.20855,-57.25479 1.88812,-73.28608 -2.12415,-14.67524 -8.50961,-33.49663 -18.4408,-54.35497 -4.90255,-10.29674 -6.24383,-12.40273 -7.62268,-11.96866 -0.92032,0.28971 -19.06249,4.95229 -40.31594,10.36127 l -38.64264,9.8345 -26.98236,-16.28057 c -14.8403,-8.95431 -32.22606,-19.27909 -38.63504,-22.94397 l -11.65267,-6.6634 -9.45109,0 -9.45108,0 -6.08374,4.104 c -3.34605,2.2572 -14.50473,10.48009 -24.79706,18.27309 -21.47516,16.26028 -19.07758,12.59934 -24.33262,37.15416 -4.21828,19.71043 -5.57074,30.43284 -5.06175,40.1302 0.5104,9.72444 1.70881,11.7869 8.89055,15.30059 4.70077,2.29988 6.4588,2.63252 13.86281,2.62306 5.77037,-0.007 9.58192,-0.49801 11.93056,-1.53572 3.15725,-1.395 3.64707,-2.15012 5.75053,-8.86526 1.26462,-4.0372 4.09267,-15.62809 6.28455,-25.75753 l 3.98524,-18.41715 10.15869,-7.12972 c 5.58728,-3.92134 10.42061,-7.12972 10.74073,-7.12972 1.63908,0 126.07298,72.14843 129.02738,74.81179 8.28807,7.4716 9.54975,17.9392 3.57988,29.70079 -4.04744,7.9741 -10.75301,15.2455 -14.80683,16.05627 l -3.01515,0.60302 0,7.95187 c 0,6.33146 0.26062,7.85185 1.27898,7.46108 0.70343,-0.26994 9.45734,-2.62286 19.45312,-5.22871 z"
           id="path7476-2"
           inkscape:connector-curvature="0"
           sodipodi:nodetypes="sssssssssssssssssssscssssssssssscssssscscsscccssssscssscssssscscs" />
      </g>
    </g>
  </g>
  <metadata
     id="metadata11">
    <rdf:RDF>
      <cc:Work>
        <dc:format>image/svg+xml</dc:format>
        <dc:type
           rdf:resource="http://purl.org/dc/dcmitype/StillImage" />
        <cc:license
           rdf:resource="http://creativecommons.org/publicdomain/zero/1.0/" />
        <dc:publisher>
          <cc:Agent
             rdf:about="http://openclipart.org/">
            <dc:title>Openclipart</dc:title>
          </cc:Agent>
        </dc:publisher>
        <dc:title></dc:title>
        <dc:date>2010-03-06T21:27:38</dc:date>
        <dc:description>A simple (but effective?) fleeting star</dc:description>
        <dc:source>https://openclipart.org/detail/30019/star-by-nefigcas</dc:source>
        <dc:creator>
          <cc:Agent>
            <dc:title>nefigcas</dc:title>
          </cc:Agent>
        </dc:creator>
        <dc:subject>
          <rdf:Bag>
            <rdf:li>fleeting star</rdf:li>
            <rdf:li>star</rdf:li>
            <rdf:li>symbol</rdf:li>
            <rdf:li>toon</rdf:li>
          </rdf:Bag>
        </dc:subject>
      </cc:Work>
      <cc:License
         rdf:about="http://creativecommons.org/publicdomain/zero/1.0/">
        <cc:permits
           rdf:resource="http://creativecommons.org/ns#Reproduction" />
        <cc:permits
           rdf:resource="http://creativecommons.org/ns#Distribution" />
        <cc:permits
           rdf:resource="http://creativecommons.org/ns#DerivativeWorks" />
      </cc:License>
    </rdf:RDF>
  </metadata>
</svg>
