<?xml version="1.0" encoding="UTF-8" standalone="no"?>
<!-- Created with Inkscape (http://www.inkscape.org/) -->

<svg
   xmlns:dc="http://purl.org/dc/elements/1.1/"
   xmlns:cc="http://creativecommons.org/ns#"
   xmlns:rdf="http://www.w3.org/1999/02/22-rdf-syntax-ns#"
   xmlns:svg="http://www.w3.org/2000/svg"
   xmlns="http://www.w3.org/2000/svg"
   xmlns:xlink="http://www.w3.org/1999/xlink"
   xmlns:sodipodi="http://sodipodi.sourceforge.net/DTD/sodipodi-0.dtd"
   xmlns:inkscape="http://www.inkscape.org/namespaces/inkscape"
   width="300"
   height="100"
   viewBox="0 0 300 100"
   id="svg2"
   version="1.1"
   inkscape:version="0.91 r13725"
   sodipodi:docname="drawing.svg"
   inkscape:export-filename="/home/dindin/text4481.png"
   inkscape:export-xdpi="90"
   inkscape:export-ydpi="90">
  <defs
     id="defs4">
    <linearGradient
       id="linearGradient4554">
      <stop
         offset="0"
         stop-color="#fd5"
         id="stop4556"
         style="stop-color:#55ff99;stop-opacity:1" />
      <stop
         offset="0"
         stop-color="#fd5"
         id="stop4558"
         style="stop-color:#f8c82e;stop-opacity:1" />
      <stop
         offset="0.5"
         stop-color="#ff543e"
         id="stop4560"
         style="stop-color:#d4ff2a;stop-opacity:1" />
      <stop
         offset="1"
         stop-color="#c837ab"
         id="stop4562"
         style="stop-color:#0678bb;stop-opacity:1" />
    </linearGradient>
    <linearGradient
       id="b">
      <stop
         id="stop4490"
         stop-color="#3771c8"
         offset="0" />
      <stop
         id="stop4492"
         offset=".128"
         stop-color="#3771c8" />
      <stop
         id="stop4494"
         stop-opacity="0"
         stop-color="#60f"
         offset="1" />
    </linearGradient>
    <linearGradient
       id="a">
      <stop
         id="stop4497"
         stop-color="#fd5"
         offset="0" />
      <stop
         id="stop4499"
         stop-color="#fd5"
         offset=".1" />
      <stop
         id="stop4501"
         stop-color="#ff543e"
         offset=".5" />
      <stop
         id="stop4503"
         stop-color="#c837ab"
         offset="1" />
    </linearGradient>
    <radialGradient
       fy="578.088"
       fx="158.429"
       gradientTransform="matrix(0,-1.98198,1.8439,0,-1031.402,454.004)"
       gradientUnits="userSpaceOnUse"
       xlink:href="#a"
       r="65"
       cy="578.088"
       cx="158.429"
       id="c" />
    <radialGradient
       fy="473.455"
       fx="147.694"
       gradientTransform="matrix(0.17394,0.86872,-3.5818,0.71718,1648.348,-458.493)"
       gradientUnits="userSpaceOnUse"
       xlink:href="#b"
       r="65"
       cy="473.455"
       cx="147.694"
       id="d" />
  </defs>
  <sodipodi:namedview
     id="base"
     pagecolor="#ffffff"
     bordercolor="#666666"
     borderopacity="1.0"
     inkscape:pageopacity="0.0"
     inkscape:pageshadow="2"
     inkscape:zoom="1.4990664"
     inkscape:cx="78.154573"
     inkscape:cy="51.397636"
     inkscape:document-units="px"
     inkscape:current-layer="layer1"
     showgrid="false"
     units="px"
     inkscape:window-width="1360"
     inkscape:window-height="710"
     inkscape:window-x="0"
     inkscape:window-y="0"
     inkscape:window-maximized="1" />
  <metadata
     id="metadata7">
    <rdf:RDF>
      <cc:Work
         rdf:about="">
        <dc:format>image/svg+xml</dc:format>
        <dc:type
           rdf:resource="http://purl.org/dc/dcmitype/StillImage" />
        <dc:title></dc:title>
      </cc:Work>
    </rdf:RDF>
  </metadata>
  <g
     inkscape:label="Layer 1"
     inkscape:groupmode="layer"
     id="layer1"
     transform="translate(0,-952.3622)">
    <rect
       style="opacity:1;fill:#f9f9f9;fill-opacity:1;stroke:none;stroke-width:4.98980665;stroke-linecap:round;stroke-linejoin:round;stroke-miterlimit:4;stroke-dasharray:none;stroke-opacity:1"
       id="rect4544"
       width="319.23343"
       height="117.08733"
       x="-307.49405"
       y="945.62445"
       transform="scale(-1,1)" />
    <text
       xml:space="preserve"
       style="font-style:normal;font-weight:normal;font-size:15.95136738px;line-height:125%;font-family:sans-serif;letter-spacing:0px;word-spacing:0px;fill:#0678bb;fill-opacity:1;stroke:none;stroke-width:1px;stroke-linecap:butt;stroke-linejoin:miter;stroke-opacity:1"
       x="5.7252059"
       y="1134.5608"
       id="text4431"
       sodipodi:linespacing="125%"
       transform="scale(1.0852956,0.92140796)"><tspan
         sodipodi:role="line"
         id="tspan4433"
         x="5.7252059"
         y="1134.5608"
         style="font-style:normal;font-variant:normal;font-weight:normal;font-stretch:normal;font-family:Ubuntu;-inkscape-font-specification:Ubuntu;fill:#0678bb;fill-opacity:1">Seirama</tspan></text>
    <text
       xml:space="preserve"
       style="font-style:normal;font-weight:normal;font-size:28.08048439px;line-height:125%;font-family:sans-serif;letter-spacing:0px;word-spacing:0px;fill:#44aa00;fill-opacity:1;stroke:none;stroke-width:1px;stroke-linecap:butt;stroke-linejoin:miter;stroke-opacity:1;"
       x="124.67988"
       y="1061.0957"
       id="text4435"
       sodipodi:linespacing="125%"
       transform="scale(1.0714114,0.93334829)"><tspan
         sodipodi:role="line"
         id="tspan4437"
         x="124.67988"
         y="1061.0957"
         style="text-align:center;text-anchor:middle;fill:#44aa00;">Semarak</tspan><tspan
         sodipodi:role="line"
         x="124.67988"
         y="1093.4728"
         id="tspan4439"
         style="text-align:center;text-anchor:middle;fill:#44aa00;" /></text>
    <text
       xml:space="preserve"
       style="font-style:normal;font-weight:normal;font-size:26.99324036px;line-height:125%;font-family:sans-serif;letter-spacing:0px;word-spacing:0px;fill:#0678bb;fill-opacity:1;stroke:none;stroke-width:1px;stroke-linecap:butt;stroke-linejoin:miter;stroke-opacity:1;"
       x="60.667179"
       y="1130.2454"
       id="text4441"
       sodipodi:linespacing="125%"
       transform="scale(1.1179082,0.89452782)"><tspan
         sodipodi:role="line"
         id="tspan4443"
         x="60.667179"
         y="1130.2454">Iringan Madani</tspan></text>
    <g
       id="g4475"
       transform="matrix(2.109984,0,0,1.5102322,520.69772,-283.97703)">
      <path
         sodipodi:nodetypes="cc"
         inkscape:connector-curvature="0"
         id="path4455"
         d="m -235.09774,855.49619 c 7.37051,12.02718 19.06684,-0.73397 8.35448,-7.21267"
         style="fill:none;fill-rule:evenodd;stroke:#0678bb;stroke-width:5.09628201;stroke-linecap:round;stroke-linejoin:round;stroke-miterlimit:4;stroke-dasharray:none;stroke-opacity:1" />
      <path
         d="m -225.06678,866.41309 a 3.8874855,3.9291935 0 0 1 3.87441,-3.92918 3.8874855,3.9291935 0 0 1 3.90048,3.90274 3.8874855,3.9291935 0 0 1 -3.84817,3.95543 3.8874855,3.9291935 0 0 1 -3.92636,-3.87612"
         sodipodi:open="true"
         sodipodi:end="3.1281362"
         sodipodi:start="3.1415927"
         sodipodi:ry="3.9291935"
         sodipodi:rx="3.8874855"
         sodipodi:cy="866.41309"
         sodipodi:cx="-221.17929"
         sodipodi:type="arc"
         id="path4457"
         style="opacity:1;fill:#0678bb;fill-opacity:1;stroke:none;stroke-width:5.48011684;stroke-linecap:round;stroke-linejoin:round;stroke-miterlimit:4;stroke-dasharray:none;stroke-opacity:0" />
      <path
         style="fill:none;fill-rule:evenodd;stroke:#f8c82e;stroke-width:5.09600019;stroke-linecap:round;stroke-linejoin:round;stroke-miterlimit:4;stroke-dasharray:none;stroke-opacity:1"
         d="m -225.34586,838.86744 c -6.70072,-12.41281 -19.07842,-0.31142 -8.73698,6.74427"
         id="path4465"
         inkscape:connector-curvature="0"
         sodipodi:nodetypes="cc" />
      <path
         transform="matrix(-0.998499,-0.05477003,0.05477003,-0.998499,0,0)"
         style="opacity:1;fill:#f8c82e;fill-opacity:1;stroke:none;stroke-width:5.48011684;stroke-linecap:round;stroke-linejoin:round;stroke-miterlimit:4;stroke-dasharray:none;stroke-opacity:0"
         id="path4467"
         sodipodi:type="arc"
         sodipodi:cx="192.98126"
         sodipodi:cy="-839.03363"
         sodipodi:rx="3.8874855"
         sodipodi:ry="3.9291935"
         sodipodi:start="3.1415927"
         sodipodi:end="3.1281362"
         sodipodi:open="true"
         d="m 189.09378,-839.03363 a 3.8874855,3.9291935 0 0 1 3.8744,-3.92917 3.8874855,3.9291935 0 0 1 3.90048,3.90273 3.8874855,3.9291935 0 0 1 -3.84816,3.95543 3.8874855,3.9291935 0 0 1 -3.92637,-3.87612" />
    </g>
    <text
       xml:space="preserve"
       style="font-style:normal;font-weight:normal;font-size:10.82333946px;line-height:125%;font-family:sans-serif;letter-spacing:0px;word-spacing:0px;fill:#000000;fill-opacity:1;stroke:none;stroke-width:1px;stroke-linecap:butt;stroke-linejoin:miter;stroke-opacity:1"
       x="159.81367"
       y="1156.3456"
       id="text4481"
       sodipodi:linespacing="125%"
       transform="scale(1.106584,0.90368199)"><tspan
         sodipodi:role="line"
         id="tspan4483"
         x="159.81367"
         y="1156.3456">@ayoberbagidepok</tspan></text>
    <g
       id="g4528"
       transform="matrix(0.09940737,0,0,0.09734742,163.1902,1035.8553)">
      <path
         id="path4507"
         transform="translate(1.004,1)"
         d="M 65.03,0 C 37.888,0 29.95,0.028 28.407,0.156 22.837,0.619 19.371,1.496 15.595,3.376 12.685,4.821 10.39,6.496 8.125,8.844 4,13.126 1.5,18.394 0.595,24.656 c -0.44,3.04 -0.568,3.66 -0.594,19.188 -0.01,5.176 0,11.988 0,21.125 0,27.12 0.03,35.05 0.16,36.59 0.45,5.42 1.3,8.83 3.1,12.56 3.44,7.14 10.01,12.5 17.75,14.5 2.68,0.69 5.64,1.07 9.44,1.25 1.61,0.07 18.02,0.12 34.44,0.12 16.42,0 32.84,-0.02 34.41,-0.1 4.4,-0.207 6.955,-0.55 9.78,-1.28 7.79,-2.01 14.24,-7.29 17.75,-14.53 1.765,-3.64 2.66,-7.18 3.065,-12.317 0.088,-1.12 0.125,-18.977 0.125,-36.81 0,-17.836 -0.04,-35.66 -0.128,-36.78 -0.41,-5.22 -1.305,-8.73 -3.127,-12.44 -1.495,-3.037 -3.155,-5.305 -5.565,-7.624 C 116.9,4 111.64,1.5 105.372,0.596 102.335,0.157 101.73,0.027 86.19,0 L 65.03,0 Z"
         inkscape:connector-curvature="0"
         style="fill:url(#c)" />
      <path
         id="path4509"
         transform="translate(1.004,1)"
         d="M 65.03,0 C 37.888,0 29.95,0.028 28.407,0.156 22.837,0.619 19.371,1.496 15.595,3.376 12.685,4.821 10.39,6.496 8.125,8.844 4,13.126 1.5,18.394 0.595,24.656 c -0.44,3.04 -0.568,3.66 -0.594,19.188 -0.01,5.176 0,11.988 0,21.125 0,27.12 0.03,35.05 0.16,36.59 0.45,5.42 1.3,8.83 3.1,12.56 3.44,7.14 10.01,12.5 17.75,14.5 2.68,0.69 5.64,1.07 9.44,1.25 1.61,0.07 18.02,0.12 34.44,0.12 16.42,0 32.84,-0.02 34.41,-0.1 4.4,-0.207 6.955,-0.55 9.78,-1.28 7.79,-2.01 14.24,-7.29 17.75,-14.53 1.765,-3.64 2.66,-7.18 3.065,-12.317 0.088,-1.12 0.125,-18.977 0.125,-36.81 0,-17.836 -0.04,-35.66 -0.128,-36.78 -0.41,-5.22 -1.305,-8.73 -3.127,-12.44 -1.495,-3.037 -3.155,-5.305 -5.565,-7.624 C 116.9,4 111.64,1.5 105.372,0.596 102.335,0.157 101.73,0.027 86.19,0 L 65.03,0 Z"
         inkscape:connector-curvature="0"
         style="fill:url(#d)" />
      <path
         id="path4511"
         d="m 66.004,18 c -13.036,0 -14.672,0.057 -19.792,0.29 -5.11,0.234 -8.598,1.043 -11.65,2.23 -3.157,1.226 -5.835,2.866 -8.503,5.535 -2.67,2.668 -4.31,5.346 -5.54,8.502 -1.19,3.053 -2,6.542 -2.23,11.65 C 18.06,51.327 18,52.964 18,66 c 0,13.036 0.058,14.667 0.29,19.787 0.235,5.11 1.044,8.598 2.23,11.65 1.227,3.157 2.867,5.835 5.536,8.503 2.667,2.67 5.345,4.314 8.5,5.54 3.054,1.187 6.543,1.996 11.652,2.23 5.12,0.233 6.755,0.29 19.79,0.29 13.037,0 14.668,-0.057 19.788,-0.29 5.11,-0.234 8.602,-1.043 11.656,-2.23 3.156,-1.226 5.83,-2.87 8.497,-5.54 2.67,-2.668 4.31,-5.346 5.54,-8.502 1.18,-3.053 1.99,-6.542 2.23,-11.65 0.23,-5.12 0.29,-6.752 0.29,-19.788 0,-13.036 -0.06,-14.672 -0.29,-19.792 -0.24,-5.11 -1.05,-8.598 -2.23,-11.65 -1.23,-3.157 -2.87,-5.835 -5.54,-8.503 -2.67,-2.67 -5.34,-4.31 -8.5,-5.535 -3.06,-1.187 -6.55,-1.996 -11.66,-2.23 C 80.659,18.057 79.029,18 65.989,18 Z m -4.306,8.65 c 1.278,-0.002 2.704,0 4.306,0 12.816,0 14.335,0.046 19.396,0.276 4.68,0.214 7.22,0.996 8.912,1.653 2.24,0.87 3.837,1.91 5.516,3.59 1.68,1.68 2.72,3.28 3.592,5.52 0.657,1.69 1.44,4.23 1.653,8.91 0.23,5.06 0.28,6.58 0.28,19.39 0,12.81 -0.05,14.33 -0.28,19.39 -0.214,4.68 -0.996,7.22 -1.653,8.91 -0.87,2.24 -1.912,3.835 -3.592,5.514 -1.68,1.68 -3.275,2.72 -5.516,3.59 -1.69,0.66 -4.232,1.44 -8.912,1.654 -5.06,0.23 -6.58,0.28 -19.396,0.28 -12.817,0 -14.336,-0.05 -19.396,-0.28 -4.68,-0.216 -7.22,-0.998 -8.913,-1.655 -2.24,-0.87 -3.84,-1.91 -5.52,-3.59 -1.68,-1.68 -2.72,-3.276 -3.592,-5.517 -0.657,-1.69 -1.44,-4.23 -1.653,-8.91 -0.23,-5.06 -0.276,-6.58 -0.276,-19.398 0,-12.818 0.046,-14.33 0.276,-19.39 0.214,-4.68 0.996,-7.22 1.653,-8.912 0.87,-2.24 1.912,-3.84 3.592,-5.52 1.68,-1.68 3.28,-2.72 5.52,-3.592 1.692,-0.66 4.233,-1.44 8.913,-1.655 4.428,-0.2 6.144,-0.26 15.09,-0.27 z m 29.928,7.97 c -3.18,0 -5.76,2.577 -5.76,5.758 0,3.18 2.58,5.76 5.76,5.76 3.18,0 5.76,-2.58 5.76,-5.76 0,-3.18 -2.58,-5.76 -5.76,-5.76 z m -25.622,6.73 c -13.613,0 -24.65,11.037 -24.65,24.65 0,13.613 11.037,24.645 24.65,24.645 C 79.617,90.645 90.65,79.613 90.65,66 90.65,52.387 79.616,41.35 66.003,41.35 Z m 0,8.65 c 8.836,0 16,7.163 16,16 0,8.836 -7.164,16 -16,16 -8.837,0 -16,-7.164 -16,-16 0,-8.837 7.163,-16 16,-16 z"
         inkscape:connector-curvature="0"
         style="fill:#ffffff" />
    </g>
    <text
       xml:space="preserve"
       style="font-style:normal;font-weight:normal;font-size:40px;line-height:125%;font-family:sans-serif;letter-spacing:0px;word-spacing:0px;fill:#000000;fill-opacity:1;stroke:none;stroke-width:1px;stroke-linecap:butt;stroke-linejoin:miter;stroke-opacity:1"
       x="70.065643"
       y="1025.2095"
       id="text4564"
       sodipodi:linespacing="125%"><tspan
         sodipodi:role="line"
         id="tspan4566"
         x="70.065643"
         y="1025.2095"
         style="font-size:12.5px">Sosial Komunitas Food sharing</tspan></text>
  </g>
</svg>
